<svg id="SvgjsSvg1030" width="288" height="288" xmlns="http://www.w3.org/2000/svg" version="1.1" xmlns:xlink="http://www.w3.org/1999/xlink" xmlns:svgjs="http://svgjs.com/svgjs"><defs id="SvgjsDefs1031"></defs><g id="SvgjsG1032"><svg xmlns="http://www.w3.org/2000/svg" fill="none" viewBox="0 0 24 24" width="288" height="288"><path fill="#6246ea" d="M14.8284 12l1.4142 1.4142 2.8284-2.8284c1.5621-1.56215 1.5621-4.09481 0-5.6569-1.562-1.5621-4.0947-1.5621-5.6568 0l-2.8284 2.82842L12 9.17154l2.8284-2.82843c.7811-.78105 2.0474-.78105 2.8284 0 .7811.78105.7811 2.04738 0 2.82843L14.8284 12zM12 14.8285l1.4142 1.4142-2.8284 2.8284c-1.56208 1.5621-4.09474 1.5621-5.65684 0s-1.5621-4.0947 0-5.6568l2.82843-2.8285L9.1716 12l-2.82843 2.8285c-.78105.781-.78105 2.0473 0 2.8284.78105.781 2.04738.781 2.82843 0L12 14.8285z" class="colorcurrentColor svgShape"></path><path fill="#6246ea" d="M14.8285 10.5857c.3905-.3905.3905-1.02371 0-1.41423-.3906-.39053-1.0237-.39053-1.4143 0L9.1716 13.4141c-.39053.3905-.39053 1.0237 0 1.4142.39052.3905 1.0237.3905 1.4142 0l4.2427-4.2426z" class="colorcurrentColor svgShape"></path></svg></g></svg>