<svg xmlns="http://www.w3.org/2000/svg" width="54.957" height="54.957"><g data-name="Group 39" fill="#094067" fill-rule="evenodd"><path data-name="Path 723" d="M21.041 28.577H7.537A7.539 7.539 0 010 21.04V7.537A7.44 7.44 0 017.537 0h13.5a7.539 7.539 0 017.537 7.537v13.5a7.642 7.642 0 01-7.537 7.537M47.42 54.957h-13.5a7.539 7.539 0 01-7.537-7.537V33.916a7.539 7.539 0 017.537-7.537h13.5a7.539 7.539 0 017.537 7.537v13.5a7.44 7.44 0 01-7.537 7.537"/><path data-name="Path 724" d="M29.52 37.056L17.9 25.437a4.171 4.171 0 010-5.81l.942-.941a4.171 4.171 0 015.81 0l11.62 11.619a4.171 4.171 0 010 5.81l-.942.942a4.17 4.17 0 01-5.81 0"/></g></svg>