<svg xmlns="http://www.w3.org/2000/svg" xmlns:svgjs="http://svgjs.com/svgjs" xmlns:xlink="http://www.w3.org/1999/xlink" viewBox="0 0 288 288"><defs/><svg xmlns="http://www.w3.org/2000/svg" viewBox="0 0 180 180"><path fill="#6246ea" fill-rule="evenodd" d="M81.2792408 88H68.4142136l19.2975408 19.297541L81.2792408 88zm2.1081851 0h13.2251482L90 107.837722 83.3874259 88zm15.3333333 0h12.8650268l-19.2975404 19.297541L98.7207592 88zm-32.927866-2.2071068L73.5857864 78H106.414214l.5.5 7.292893 7.2928932L115.414214 87l-24.7071072 24.707107L90 112.414214 64.5857864 87l1.2071068-1.2071068zM68.4142136 86L74 80.4142136 79.5857864 86H68.4142136zm16 0L90 80.4142136 95.5857864 86H84.4142136zm16.0000004 0L106 80.4142136 111.585786 86h-11.171572zm-8.0000004-6h11.1715724L98 85.5857864 92.4142136 80zM82 85.5857864L87.5857864 80H76.4142136L82 85.5857864zM17.4142136 0L.70710678 16.7071068 0 17.4142136V0h17.4142136zM4.27924078 0L0 12.8377223V0h4.27924078zM14.5857864 0L2.28824561 12.2975408 6.38742589 0h8.19836051zM180 17.4142136L162.585786 0H180v17.4142136zM165.414214 0l12.29754 12.2975408L173.612574 0h-8.19836zM180 12.8377223L175.720759 0H180v12.8377223zM0 163h16.4142136l.5.5 7.2928932 7.292893L25.4142136 172l-8 8H0v-17zm0 10h6.61257411l-2.33333333 7H0v-7zm14.5857864 7l7-7H8.72075922l-2.33333333 7h8.19836051zM0 165.414214L5.58578644 171H0v-5.585786zM10.4142136 171L16 165.414214 21.5857864 171H10.4142136zm-8.00000004-6H13.5857864L8 170.585786 2.41421356 165zM180 163h-16.414214l-7.792893 7.792893L154.585786 172l8 8H180v-17zm-14.585786 17l-7-7h12.865027l2.333333 7h-8.19836zM180 173h-6.612574l2.333333 7H180v-7zm-21.585786-2L164 165.414214 169.585786 171h-11.171572zM180 165.414214L174.414214 171H180v-5.585786zm-8 5.171572L177.585786 165h-11.171572L172 170.585786zM152.932504 25.6532829l1.414213 1.4142136-33.941125 33.9411255-1.414214-1.4142136 33.941126-33.9411255zm1.414213 127.2792211l-1.414213 1.414213-33.941126-33.941125 1.414214-1.414214 33.941125 33.941126zm-127.2792205 1.414213l-1.4142136-1.414213 33.9411255-33.941126 1.4142136 1.414214-33.9411255 33.941125zM25.6532829 27.0674965l1.4142136-1.4142136L61.008622 59.5944084l-1.4142136 1.4142136-33.9411255-33.9411255zM0 85c2.209139 0 4 1.790861 4 4s-1.790861 4-4 4v-8zm180 0c-2.209139 0-4 1.790861-4 4s1.790861 4 4 4v-8zM94 0c0 2.209139-1.790861 4-4 4s-4-1.790861-4-4h8zm0 180c0-2.209139-1.790861-4-4-4s-4 1.790861-4 4h8z" class="color000 svgShape"/></svg></svg>