<svg id="SvgjsSvg1024" width="288" height="288" xmlns="http://www.w3.org/2000/svg" version="1.1" xmlns:xlink="http://www.w3.org/1999/xlink" xmlns:svgjs="http://svgjs.com/svgjs"><defs id="SvgjsDefs1025"></defs><g id="SvgjsG1026"><svg xmlns="http://www.w3.org/2000/svg" fill="none" viewBox="0 0 24 24" width="288" height="288"><path fill="#6246ea" d="M11 10.9794c0-.5523.4477-1.00003 1-1.00003s1 .44773 1 1.00003v6c0 .5523-.4477 1-1 1s-1-.4477-1-1v-6zM12 6.05115c-.5523 0-1 .44771-1 1 0 .55228.4477 1 1 1s1-.44772 1-1c0-.55229-.4477-1-1-1z" class="colorcurrentColor svgShape"></path><path fill="#6246ea" fill-rule="evenodd" d="M12 2C6.47715 2 2 6.47715 2 12c0 5.5228 4.47715 10 10 10 5.5228 0 10-4.4772 10-10 0-5.52285-4.4772-10-10-10zM4 12c0 4.4183 3.58172 8 8 8 4.4183 0 8-3.5817 8-8 0-4.41828-3.5817-8-8-8-4.41828 0-8 3.58172-8 8z" clip-rule="evenodd" class="colorcurrentColor svgShape"></path></svg></g></svg>