<svg id="SvgjsSvg1036" width="288" height="288" xmlns="http://www.w3.org/2000/svg" version="1.1" xmlns:xlink="http://www.w3.org/1999/xlink" xmlns:svgjs="http://svgjs.com/svgjs"><defs id="SvgjsDefs1037"></defs><g id="SvgjsG1038"><svg xmlns="http://www.w3.org/2000/svg" fill="none" viewBox="0 0 24 24" width="288" height="288"><path fill="#6246ea" fill-rule="evenodd" d="M16 9c0 2.2091-1.7909 4-4 4-2.20914 0-4-1.7909-4-4 0-2.20914 1.79086-4 4-4 2.2091 0 4 1.79086 4 4zm-2 0c0 1.1046-.8954 2-2 2s-2-.8954-2-2c0-1.10457.8954-2 2-2s2 .89543 2 2z" clip-rule="evenodd" class="colorcurrentColor svgShape"></path><path fill="#6246ea" fill-rule="evenodd" d="M12 1C5.92487 1 1 5.92487 1 12c0 6.0751 4.92487 11 11 11 6.0751 0 11-4.9249 11-11 0-6.07513-4.9249-11-11-11zM3 12c0 2.0902.71255 4.014 1.90798 5.5417C6.55245 15.3889 9.14627 14 12.0645 14c2.8803 0 5.4447 1.3531 7.092 3.4583C20.313 15.9443 21 14.0524 21 12c0-4.97056-4.0294-9-9-9-4.97056 0-9 4.02944-9 9zm9 9c-2.15023 0-4.12435-.7541-5.67233-2.0122C7.59352 17.1812 9.69106 16 12.0645 16c2.3439 0 4.4188 1.1521 5.6893 2.9209C16.1939 20.2191 14.1881 21 12 21z" clip-rule="evenodd" class="colorcurrentColor svgShape"></path></svg></g></svg>