<svg xmlns="http://www.w3.org/2000/svg" width="67" height="67"><defs><clipPath id="a"><path data-name="Rectangle 247" transform="translate(919.65 3662.65)" fill="#fff" stroke="#707070" d="M0 0h67v67H0z"/></clipPath></defs><g data-name="Mask Group 25" transform="translate(-919.65 -3662.65)" clip-path="url(#a)"><path d="M982.617 3663h-58.934a3.682 3.682 0 00-3.683 3.683v58.934a3.682 3.682 0 003.683 3.683h31.733v-25.636H946.8v-10.037h8.612v-7.366c0-8.564 5.23-13.231 12.892-13.231a72.037 72.037 0 017.717.394v8.914h-5.282c-4.155 0-4.965 1.982-4.965 4.88v6.391h9.934l-1.29 10.037h-8.648v25.654h16.847a3.682 3.682 0 003.683-3.683v-58.934a3.682 3.682 0 00-3.683-3.683z" fill="#6246ea"/></g></svg>