<svg xmlns="http://www.w3.org/2000/svg" width="67" height="67"><defs><clipPath id="a"><path data-name="Rectangle 248" transform="translate(1289 3637)" fill="#fff" stroke="#707070" d="M0 0h67v67H0z"/></clipPath></defs><g data-name="Mask Group 26" transform="translate(-1289 -3637)" clip-path="url(#a)"><g transform="translate(1289.056 3637)" fill="#6246ea"><path data-name="Path 540" d="M66.673 19.776a24.252 24.252 0 00-1.556-8.231 17.122 17.122 0 00-9.78-9.78 24.539 24.539 0 00-8.12-1.56c-3.573-.16-4.706-.2-13.777-.2s-10.233 0-13.78.2a24.535 24.535 0 00-8.112 1.56 17.112 17.112 0 00-9.78 9.78 24.344 24.344 0 00-1.56 8.116C.048 23.238 0 24.371 0 33.441s0 10.229.208 13.78a24.5 24.5 0 001.556 8.123 17.122 17.122 0 009.784 9.777 24.455 24.455 0 008.116 1.671c3.577.16 4.71.208 13.78.208s10.233 0 13.78-.208a24.476 24.476 0 008.12-1.556 17.143 17.143 0 009.78-9.78 24.462 24.462 0 001.556-8.125c.16-3.573.208-4.706.208-13.78s-.007-10.22-.215-13.775zM33.418 50.594A17.172 17.172 0 1150.59 33.422a17.168 17.168 0 01-17.172 17.172zM51.273 19.62a4 4 0 114-4 4 4 0 01-4 4z"/><circle data-name="Ellipse 108" cx="11.154" cy="11.154" r="11.154" transform="translate(22.264 22.268)"/></g></g></svg>