<svg xmlns="http://www.w3.org/2000/svg" width="67" height="67"><defs><clipPath id="a"><path data-name="Rectangle 249" transform="translate(1467 3637)" fill="#fff" stroke="#707070" d="M0 0h67v67H0z"/></clipPath></defs><g data-name="Mask Group 27" transform="translate(-1467 -3637)" clip-path="url(#a)"><path d="M1530.278 3637h-59.556a3.721 3.721 0 00-3.722 3.722v59.556a3.721 3.721 0 003.722 3.722h59.556a3.721 3.721 0 003.722-3.722v-59.556a3.721 3.721 0 00-3.722-3.722zm-43.4 57.088h-9.951v-31.974h9.946zm-4.978-36.34a5.762 5.762 0 115.762-5.762 5.762 5.762 0 01-5.762 5.762zm42.191 36.34h-9.934v-15.548c0-3.707-.067-8.475-5.166-8.475-5.174 0-5.959 4.042-5.959 8.215v15.811h-9.932v-31.973h9.529v4.37h.138a10.431 10.431 0 019.395-5.163c10.065 0 11.922 6.618 11.922 15.231v17.532z" fill="#6246ea"/></g></svg>