<svg xmlns="http://www.w3.org/2000/svg" viewBox="0 0 400 300"><g data-name="#483_data_organization_flatline"><path d="M107.17 204.37s-2.57-.19-2.94-3.85C103.9 197.31 92.76 95.1 90 69.85a5.87 5.87 0 015-6.44l159.25-24a5 5 0 015.75 5.18l-4.3 104.35z" fill="#231f20"/><path d="M107.17 204.87s-3-.27-3.41-4.3c-.33-3.26-11.9-109.42-14.22-130.67a6.36 6.36 0 015.39-7l159.25-24a5.49 5.49 0 016.31 5.67L256.2 149a.51.51 0 01-.33.45l-148.52 55.39a.57.57 0 01-.18.03zM255 39.88a4 4 0 00-.68 0L95 63.9a5.35 5.35 0 00-4.53 5.89c2.35 21.21 13.92 127.42 14.26 130.68.28 2.82 2 3.31 2.39 3.39l148.09-55.27 4.25-104a4.5 4.5 0 00-4.46-4.71z" fill="#231f20"/><path fill="#fff" d="M110.8 193.48L98.41 73.63 255.8 47.35l-5.73 95.73-139.27 50.4z"/><path d="M110.8 193.94a.45.45 0 01-.25-.07.51.51 0 01-.21-.34L98 73.68a.47.47 0 01.38-.5L255.73 46.9a.49.49 0 01.38.11.51.51 0 01.15.37l-5.73 95.73a.45.45 0 01-.3.4L111 193.91a.4.4 0 01-.2.03zM98.91 74l12.28 118.84 138.45-50.09 5.67-94.86z" fill="#231f20"/><path d="M116.68 160.36a.56.56 0 01-.42-.18.57.57 0 010-.79l110.79-98.53a.57.57 0 01.79 0 .55.55 0 01-.05.78l-110.74 98.58a.54.54 0 01-.37.14z" fill="#d1d3d4"/><path d="M107.17 204.37l-.18 4.44a.85.85 0 00.36.73l85.87 61.93a6.44 6.44 0 006.59.57l150.37-73.24a3.27 3.27 0 001.83-2.93v-2.75l-183.26 11.2z" fill="#231f20"/><path d="M197 273.19a7 7 0 01-4.07-1.31L107.05 210a1.36 1.36 0 01-.56-1.16l.18-4.44a.5.5 0 01.5-.48l61.58-.05L352 192.62a.51.51 0 01.38.13.51.51 0 01.15.37v2.75a3.76 3.76 0 01-2.11 3.37L200 272.49a7 7 0 01-3 .7zm-89.34-68.32l-.16 4a.37.37 0 00.15.31l85.87 61.92a5.92 5.92 0 006.08.53L350 198.35a2.77 2.77 0 001.55-2.48v-2.22l-182.77 11.17z" fill="#231f20"/><path d="M107.68 203.76l148-54.82L351 191.8a1.62 1.62 0 01.11 3L198 266.53a4.76 4.76 0 01-4.8-.43l-85.73-61a.79.79 0 01.21-1.34z" fill="#fff"/><path d="M196 267.44a5.21 5.21 0 01-3-1l-85.73-61a1.24 1.24 0 01.29-2.18l148-54.82a.47.47 0 01.35 0l95.28 42.86a2.08 2.08 0 01.12 3.81L198.22 267a5.2 5.2 0 01-2.22.44zm59.68-118l-147.84 54.75a.33.33 0 00-.21.26.31.31 0 00.14.31l85.73 61a4.33 4.33 0 004.34.39l153.06-71.79a1.14 1.14 0 00.66-1.09 1.16 1.16 0 00-.74-1zm-148 54.33z" fill="#231f20"/><path d="M176 238a8.07 8.07 0 01-4.48-1.36l-38.27-25.51a3.68 3.68 0 01.76-6.52l122.58-45.33a.55.55 0 01.42 0l44.32 19.55a3.22 3.22 0 010 5.89l-122.11 52.63a8.25 8.25 0 01-3.22.65zm80.77-77.6L134.4 205.66a2.57 2.57 0 00-.54 4.55l38.27 25.51a7 7 0 006.65.61l122.08-52.61a2.07 2.07 0 001.27-1.92 2.1 2.1 0 00-1.25-1.93zM253.27 234.47a1.77 1.77 0 01-.84-.21L230 222.44a1.81 1.81 0 01.12-3.26l43.41-18.89a4.89 4.89 0 014 .05l21.37 9.93a1.81 1.81 0 010 3.28L254 234.3a1.83 1.83 0 01-.73.17zM274 201.31l-43.4 18.89a.7.7 0 000 1.26l22.42 11.82a.68.68 0 00.62 0l44.85-20.75a.7.7 0 000-1.27L277 201.35a3.77 3.77 0 00-3.07 0z" fill="#d1d3d4"/><path fill="#231f20" d="M134.16 100.69l-1.41-15.76 98.79-16.05v81.16l-91.19 20.33v-4.64l-6.19-65.04z"/><path d="M140.35 170.87a.5.5 0 01-.5-.5v-4.64l-6.19-65L132.25 85a.5.5 0 01.42-.54l98.79-16.05a.52.52 0 01.58.5V150a.49.49 0 01-.39.48l-91.19 20.33zm-5.69-70.22l6.19 65v4.05L231 149.64V69.47l-97.71 15.88 1.37 15.3z" fill="#231f20"/><path fill="#fff" d="M135.04 109.99l-1.91-20.8 67.76-10.88-15.68 51.38-50.17-19.7z"/><path d="M185.21 130.15a.45.45 0 01-.16 0l-50.17-19.7a.47.47 0 01-.29-.39l-1.91-20.8a.44.44 0 01.38-.49l67.75-10.88a.44.44 0 01.42.15.45.45 0 01.09.43l-15.67 51.39a.47.47 0 01-.24.28.45.45 0 01-.2.01zm-49.74-20.48l49.45 19.42 15.32-50.21-66.62 10.69z" fill="#231f20"/><path d="M146.12 151.84c-.28-1.69-5.59-57.86-5.59-57.86l35.86-6.24v-6.8l41.94-8 3.29 4.47 20.66-3.6 1.12 52.37z" fill="#e6e7e8"/><path d="M146.12 152.3a.42.42 0 01-.24-.07.45.45 0 01-.21-.31c-.28-1.69-5.38-55.6-5.6-57.89a.46.46 0 01.38-.5l35.48-6.17v-6.42a.46.46 0 01.38-.45l41.94-8a.46.46 0 01.45.18l3.12 4.24 20.38-3.55a.45.45 0 01.53.44l1.13 52.37a.46.46 0 01-.34.45l-97.28 25.72zM141 94.36c.47 4.94 4.87 51.38 5.49 56.91l96.43-25.49-1.09-51.48-20.14 3.51a.47.47 0 01-.44-.18l-3.12-4.23-41.28 7.92v6.42a.44.44 0 01-.38.45z" fill="#231f20"/><path fill="#fff" d="M163.06 125.27l-3-31.29 63.63-11.45v33.84l-60.63 8.9z"/><path d="M163.06 125.72a.44.44 0 01-.45-.41l-3-31.28a.46.46 0 01.37-.5l63.63-11.45a.51.51 0 01.38.1.48.48 0 01.16.35v33.84a.46.46 0 01-.39.45l-60.63 8.9zm-2.5-31.36l2.91 30.38 59.77-8.74V83.08z" fill="#231f20"/><path d="M153.77 150c-.28-1.69 0-51.66 0-51.66l40.66-7.07v-6.8l41.94-8.05 3.29 4.46 14.93-3.27-4.13 48.24z" fill="#e6e7e8"/><path d="M153.77 150.49a.45.45 0 01-.25-.07.47.47 0 01-.2-.31c-.28-1.71 0-49.69 0-51.73a.46.46 0 01.38-.45l40.28-7v-6.42a.46.46 0 01.38-.45l41.93-8a.47.47 0 01.46.18l3.11 4.22 14.64-3.2a.46.46 0 01.56.48l-4.13 48.24a.47.47 0 01-.35.41l-96.67 24.14zm.43-51.72c-.08 16.4-.18 46.31 0 50.69l95.8-23.93 4.05-47.3-14.33 3.14a.45.45 0 01-.46-.18L236.15 77l-41.28 7.92v6.43a.46.46 0 01-.38.45z" fill="#231f20"/><path d="M173.74 136.08v-38.3s66.66-12 66.85-11.45 0 52.34 0 52.34z" fill="#fff"/><path d="M240.59 139.13l-66.85-2.6a.45.45 0 01-.43-.45v-38.3a.45.45 0 01.37-.45c.17 0 16.86-3 33.36-5.93 33.76-5.94 33.81-5.77 34-5.21s.08 36.89 0 52.48a.46.46 0 01-.45.46zm-66.39-3.49l65.93 2.56c.06-16.87.14-47.57 0-51.41-4.58.41-48.38 8.21-66 11.38z" fill="#231f20"/><path d="M180.33 155.22c-.28-1.69-.56-54.53-.56-54.53l32-5.56 1.41-5.61 47.1-10.39 3.29 4.46 14.93-3.26-4.13 48.24z" fill="#e6e7e8"/><path d="M180.33 155.68a.51.51 0 01-.24-.07.45.45 0 01-.21-.31c-.28-1.71-.55-52.45-.57-54.6a.46.46 0 01.38-.46l31.71-5.51 1.34-5.32a.47.47 0 01.34-.33l47.1-10.39a.46.46 0 01.47.17l3.11 4.22 14.65-3.2a.48.48 0 01.4.1.51.51 0 01.15.39l-4.13 48.24a.46.46 0 01-.33.4l-94 26.65zm-.1-54.6c.09 17.34.31 49 .52 53.55L274 128.21l4-47.3L263.67 84a.47.47 0 01-.47-.17l-3.11-4.23-46.53 10.31-1.35 5.33a.48.48 0 01-.37.34z" fill="#231f20"/><path fill="#6246ea" d="M134.16 100.69l6.19 65.04 65.89 29.57-3.38-74.62-68.7-19.99z"/><path d="M206.24 195.75a.41.41 0 01-.19 0l-65.88-29.56a.45.45 0 01-.27-.37l-6.2-65a.48.48 0 01.17-.4.45.45 0 01.42-.09l68.7 20a.44.44 0 01.32.41l3.38 74.62a.46.46 0 01-.2.4.43.43 0 01-.25-.01zm-65.46-30.32l65 29.15-3.36-73.58-67.74-19.71z" fill="#231f20"/><path fill="#6246ea" d="M204.83 199.24l-3.94-93.76 3.47 1.22 3.85 93.75-3.38-1.21z"/><path d="M208.21 200.9h-.16l-3.37-1.21a.46.46 0 01-.31-.41l-3.94-93.76a.44.44 0 01.19-.39.45.45 0 01.42-.06l3.47 1.22a.45.45 0 01.31.41l3.84 93.75a.44.44 0 01-.18.38.46.46 0 01-.27.07zm-2.94-2l2.45.88-3.8-92.78-2.55-.9z" fill="#231f20"/><path fill="#6246ea" d="M208.21 200.45l95.31-36.83 1.26-81.09-100.42 24.17 3.85 93.75z"/><path d="M208.21 200.9a.43.43 0 01-.25-.07.46.46 0 01-.21-.37l-3.85-93.74a.45.45 0 01.35-.46l100.43-24.17a.46.46 0 01.39.09.45.45 0 01.17.36L304 163.63a.46.46 0 01-.29.42l-95.31 36.82a.45.45 0 01-.19.03zm-3.38-93.84l3.81 92.73 94.42-36.48 1.26-80.2z" fill="#231f20"/><path fill="#6246ea" d="M200.89 105.48l100.09-24.21 3.8 1.26-100.42 24.17-3.47-1.22z"/><path d="M204.36 107.16a.4.4 0 01-.15 0l-3.47-1.22a.45.45 0 01-.31-.45.44.44 0 01.35-.42l100.09-24.25a.57.57 0 01.26 0l3.8 1.27a.45.45 0 01.31.45.46.46 0 01-.35.43l-100.42 24.17zm-1.86-1.6l1.88.66 98.74-23.76-2.12-.72z" fill="#231f20"/><path d="M248.88 139.23a3.67 3.67 0 01-2.42-1 3 3 0 01-1.08-2.39c.07-1.65-.55-15.79-.56-15.94a.55.55 0 01.39-.55l26.94-8a.54.54 0 01.49.09.55.55 0 01.23.44v16.65a4.65 4.65 0 01-2 3.59c-1.36 1.06-20 6.85-21.61 7.09a2 2 0 01-.38.02zM246 120.32c.11 2.45.61 14.05.54 15.59a2 2 0 00.71 1.53 2.54 2.54 0 001.94.66c1.74-.26 20-6 21.09-6.87a3.57 3.57 0 001.52-2.75v-15.87z" fill="#fff"/><path d="M278.91 144.15a2.52 2.52 0 00-2.5 2.5 2.37 2.37 0 00.67 1.67l-1.13.55-4.45 2c-3 1.32-6 2.59-9.08 3.71a79.21 79.21 0 01-9.32 2.78c-1.94.43-5.29 1.52-6.95-.12-2.29-2.25-5.83 1.28-3.53 3.54 3.09 3 7.52 2.34 11.36 1.5a83.06 83.06 0 0012.8-4c4.2-1.66 8.38-3.44 12.44-5.4 1.76-.84 3.43-2.33 3.49-4.42a4 4 0 00-3.8-4.31z" fill="#231f20"/><path d="M110.67 96.75a.56.56 0 01-.39-1l18.4-17.88a.56.56 0 01.77.8l-18.39 17.92a.54.54 0 01-.39.16zM116.68 125.82a.55.55 0 01-.44-.21.56.56 0 01.09-.78l10.14-8.09a.56.56 0 11.69.87L117 125.7a.54.54 0 01-.32.12z" fill="#d1d3d4"/></g></svg>